<svg width="96" height="96" xmlns="http://www.w3.org/2000/svg" xmlns:xlink="http://www.w3.org/1999/xlink" xml:space="preserve" overflow="hidden"><defs><clipPath id="clip0"><rect x="0" y="0" width="96" height="96"/></clipPath></defs><g clip-path="url(#clip0)"><path d="M47.1 63.5C46.1 63.5 45.1 63.4 44.1 63.4L44.1 89.5C44.1 91.2 45.4 92.5 47.1 92.5 48.8 92.5 50.1 91.2 50.1 89.5L50.1 63.3C49.1 63.4 48.1 63.5 47.1 63.5Z"/><path d="M56 58.3C61.8 56.6 67 52.9 70.6 48 74.1 43.2 76.1 37.3 76 31.3 75.9 20.4 69.3 10.3 59.3 5.9 48.5 1.1 35.5 3.8 27.4 12.4 19.4 21.1 17.6 34.2 23.2 44.6 28.8 55 40.4 60.8 52 59.2 53.3 59 54.7 58.7 56 58.3 56.3 58.2 55.8 58.4 56 58.3ZM72 31.5C72 32.2 72 32.9 71.9 33.6 70.2 25 64 17.1 55.1 15.4 46.8 13.8 37.3 17.7 34 25.8 30.6 34.1 35.4 45.4 45 46.1 49.5 46.4 54.2 44.2 56.2 40 58.1 36.1 57.1 31.3 53.6 28.6 49.9 25.8 44 27.1 42.5 31.8 41.8 34.1 42.6 36.7 44.4 38.2 46.2 39.8 48.7 39.6 50.6 38.4 48.5 40.4 45.3 40.8 42.9 39.2 40.8 37.8 39.6 35.2 39.6 32.7 39.6 27.8 44.2 24.3 48.8 24 54 23.7 58.3 27.4 59.8 32.2 61.4 37.3 59.5 42.7 55.4 46 51 49.5 44.9 50.3 39.8 48.1 34.5 45.9 30.9 40.7 29.7 35.3 27.3 24.7 34.9 14.9 45 12.1 50.3 10.6 56.1 11 61.2 13.4 62.5 14 63.7 14.8 64.9 15.6 66 16.4 67.4 17.3 68.2 18.5 69.9 21 71 24 71.6 26.9 71.8 28.4 72 29.9 72 31.5Z"/></g></svg>