<svg width="96" height="96" xmlns="http://www.w3.org/2000/svg" xmlns:xlink="http://www.w3.org/1999/xlink" xml:space="preserve" overflow="hidden"><defs><clipPath id="clip0"><rect x="0" y="0" width="96" height="96"/></clipPath></defs><g clip-path="url(#clip0)"><path d="M55 7C55 5.89543 54.1046 5 53 5L43 5C41.8954 5 41 5.89543 41 7L41 14 55 14Z"/><path d="M67 40.652C66.9955 39.0774 66.6236 37.5256 65.914 36.12L55.808 17 40.192 17 30.055 36.181C29.363 37.5699 29.0019 39.1002 29 40.652L29 43.5C29.0005 45.125 29.5322 46.7052 30.514 48 29.5322 49.2948 29.0005 50.875 29 52.5L29 53.5C29.0005 55.125 29.5322 56.7052 30.514 58 29.5322 59.2948 29.0005 60.875 29 62.5L29 63.5C29.0005 65.1249 29.5322 66.7052 30.514 68 29.5322 69.2948 29.0005 70.8751 29 72.5L29 82C29.0061 86.968 33.0319 90.9939 38 91L58 91C62.9681 90.9939 66.9939 86.968 67 82L67 72.5C66.9995 70.8751 66.4678 69.2948 65.486 68 66.4678 66.7052 66.9995 65.1249 67 63.5L67 62.5C66.9995 60.875 66.4678 59.2948 65.486 58 66.4678 56.7052 66.9995 55.125 67 53.5L67 52.5C66.9995 50.875 66.4678 49.2948 65.486 48 66.4678 46.7052 66.9995 45.125 67 43.5ZM61 43.5C61 44.3284 60.3284 45 59.5 45L56 45 56 51 59.5 51C60.3284 51 61 51.6716 61 52.5L61 53.5C61 54.3284 60.3284 55 59.5 55L56 55 56 61 59.5 61C60.3284 61 61 61.6716 61 62.5L61 63.5C61 64.3284 60.3284 65 59.5 65L56 65 56 71 59.5 71C60.3284 71 61 71.6716 61 72.5L61 82C61 83.6569 59.6569 85 58 85L38 85C36.3431 85 35 83.6569 35 82L35 72.5C35 71.6716 35.6716 71 36.5 71L40 71 40 65 36.5 65C35.6716 65 35 64.3284 35 63.5L35 62.5C35 61.6716 35.6716 61 36.5 61L40 61 40 55 36.5 55C35.6716 55 35 54.3284 35 53.5L35 52.5C35 51.6716 35.6716 51 36.5 51L40 51 40 45 36.5 45C35.6716 45 35 44.3284 35 43.5L35 40.652C34.9986 40.0539 35.1322 39.4632 35.391 38.924L43.808 23 52.192 23 60.578 38.863C60.8547 39.4188 60.9991 40.0311 61 40.652Z"/></g></svg>