<svg width="96" height="96" xmlns="http://www.w3.org/2000/svg" xmlns:xlink="http://www.w3.org/1999/xlink" xml:space="preserve" overflow="hidden"><defs><clipPath id="clip0"><rect x="0" y="0" width="96" height="96"/></clipPath></defs><g clip-path="url(#clip0)"><path d="M76.7 14 19.5 14C11.6 14 5.2 20.4 5.2 28.3L5.2 67.8C5.2 75.7 11.6 82.1 19.5 82.1L76.7 82.1C84.6 82 91 75.6 91 67.7L91 28.3C91 20.4 84.6 14 76.7 14ZM85 28.3 85 44.3 42.6 44.3 42.6 20 76.7 20C81.3 20 85 23.7 85 28.3ZM11.3 67.7 11.3 28.3C11.3 23.7 15 20 19.6 20L38.7 20 38.7 76 19.5 76C15 76 11.3 72.3 11.3 67.7ZM76.7 76 42.6 76 42.6 48.2 85 48.2 85 67.7C85 72.3 81.3 76 76.7 76Z"/><path d="M50.6 51C49 51.2 47.8 52.7 48 54.3 48 54.3 48 54.3 48 54.3 49.1 63.5 47.8 69.2 47.8 69.3 47.4 70.9 48.4 72.5 50.1 72.9 51.7 73.3 53.3 72.3 53.7 70.7 53.8 70.4 55.3 64 54.1 53.6 53.7 52 52.3 50.8 50.6 51Z"/><path d="M63 51C61.4 51.2 60.2 52.7 60.4 54.3 60.4 54.3 60.4 54.3 60.4 54.3 61.5 63.5 60.2 69.2 60.2 69.3 59.8 70.9 60.8 72.5 62.5 72.9 64.1 73.3 65.7 72.3 66.1 70.7 66.2 70.4 67.7 64 66.5 53.6 66.1 52 64.7 50.8 63 51Z"/><path d="M75.4 51C73.8 51.2 72.6 52.7 72.8 54.3 72.8 54.3 72.8 54.3 72.8 54.3 73.9 63.5 72.6 69.2 72.6 69.3 72.2 70.9 73.2 72.5 74.9 72.9 76.5 73.3 78.1 72.3 78.5 70.7 78.6 70.4 80.1 64 78.9 53.6 78.5 52 77.1 50.8 75.4 51Z"/><path d="M25.6 23C10.5 37.2 17.2 52.7 22.1 60.2 17.4 66 16.5 74 16.5 74L16.5 74 25.6 67.5 34.7 74 34.7 74C34.7 74 33.8 66 29.1 60.2 34 52.7 40.7 37.2 25.6 23ZM18.7 38.6C18.5 38.1 18.7 37.5 19.2 37.3 19.2 37.3 19.2 37.3 19.2 37.3L28.9 32.9C29.4 32.7 30 32.9 30.2 33.4 30.4 33.9 30.2 34.5 29.7 34.7L20 39.1C19.5 39.3 18.9 39.1 18.7 38.6L18.7 38.6ZM19.7 45.9C19.5 45.4 19.7 44.8 20.2 44.6 20.2 44.6 20.2 44.6 20.2 44.6L29.9 40.2C30.4 40 31 40.2 31.2 40.7 31.4 41.2 31.2 41.8 30.7 42L21 46.4C20.5 46.6 19.9 46.4 19.7 45.9L19.7 45.9ZM21.6 53.8C21 53.8 20.6 53.4 20.6 52.8 20.6 52.4 20.8 52.1 21.2 51.9L30.9 47.5C31.4 47.3 32 47.5 32.2 48 32.4 48.5 32.2 49.1 31.7 49.3 31.7 49.3 31.7 49.3 31.7 49.3L22 53.7C21.9 53.7 21.7 53.8 21.6 53.8Z"/><path d="M48 41.7 49.7 40C46.3 36.7 46.3 31.3 49.6 27.9 52.9 24.5 58.3 24.5 61.7 27.8 61.7 27.8 61.8 27.9 61.8 27.9L63.5 26.2C59.2 21.9 52.2 22 47.9 26.3 43.7 30.5 43.7 37.4 48 41.7Z"/><path d="M51.1 29.3C48.5 31.9 48.6 36 51.1 38.6 51.1 38.6 51.1 38.6 51.1 38.6L60.4 29.3C57.8 26.7 53.7 26.7 51.1 29.3 51.1 29.2 51.1 29.3 51.1 29.3Z"/><path d="M68.7 39.9C65.3 36.6 65.3 31.2 68.6 27.8 71.9 24.4 77.3 24.4 80.7 27.7 80.7 27.7 80.8 27.8 80.8 27.8L82.5 26.1C78.2 21.8 71.2 21.9 66.9 26.2 62.7 30.5 62.7 37.4 66.9 41.7L68.7 39.9Z"/><path d="M70.1 29.3C67.5 31.9 67.6 36 70.1 38.6 70.1 38.6 70.1 38.6 70.1 38.6L79.4 29.3C76.8 26.7 72.7 26.7 70.1 29.3 70.1 29.2 70.1 29.3 70.1 29.3Z"/></g></svg>